<svg width="52" height="52" viewBox="0 0 52 52" fill="none" xmlns="http://www.w3.org/2000/svg">
<g filter="url(#filter0_d_298_2606)">
<rect x="4" y="2" width="44" height="44" rx="22" fill="white"/>
<path fill-rule="evenodd" clip-rule="evenodd" d="M19.0012 16.9993C20.7918 15.2087 23.268 14.0996 26.0016 14.0996C28.7351 14.0996 31.2114 15.2087 33.0019 16.9993C34.7925 18.7898 35.9016 21.266 35.9016 23.9996C35.9016 26.7332 34.7925 29.2094 33.0019 31C31.2114 32.7905 28.7351 33.8996 26.0016 33.8996C23.268 33.8996 20.7918 32.7905 19.0012 31C17.2106 29.2094 16.1016 26.7332 16.1016 23.9996C16.1016 21.266 17.2106 18.7898 19.0012 16.9993ZM26.0016 15.8996C23.7646 15.8996 21.7408 16.8052 20.274 18.272C18.8072 19.7388 17.9016 21.7626 17.9016 23.9996C17.9016 26.2366 18.8072 28.2604 20.274 29.7272C21.7408 31.194 23.7646 32.0996 26.0016 32.0996C28.2386 32.0996 30.2623 31.194 31.7291 29.7272C33.1959 28.2604 34.1016 26.2366 34.1016 23.9996C34.1016 21.7626 33.1959 19.7388 31.7291 18.272C30.2623 16.8052 28.2386 15.8996 26.0016 15.8996Z" fill="#FFBA00"/>
<path fill-rule="evenodd" clip-rule="evenodd" d="M21.8296 19.8277C22.8963 18.761 24.3726 18.0996 26.0016 18.0996C27.6306 18.0996 29.1068 18.761 30.1735 19.8277C31.2402 20.8944 31.9016 22.3706 31.9016 23.9996C31.9016 25.6286 31.2402 27.1048 30.1735 28.1715C29.1068 29.2382 27.6306 29.8996 26.0016 29.8996C24.3726 29.8996 22.8963 29.2382 21.8296 28.1715C20.7629 27.1048 20.1016 25.6286 20.1016 23.9996C20.1016 22.3706 20.7629 20.8944 21.8296 19.8277ZM26.0016 19.8996C24.8691 19.8996 23.8454 20.3575 23.1024 21.1005C22.3595 21.8434 21.9016 22.8672 21.9016 23.9996C21.9016 25.132 22.3595 26.1558 23.1024 26.8987C23.8454 27.6417 24.8691 28.0996 26.0016 28.0996C27.134 28.0996 28.1578 27.6417 28.9007 26.8987C29.6436 26.1558 30.1016 25.132 30.1016 23.9996C30.1016 22.8672 29.6436 21.8434 28.9007 21.1005C28.1578 20.3575 27.134 19.8996 26.0016 19.8996Z" fill="#FFBA00"/>
<path fill-rule="evenodd" clip-rule="evenodd" d="M27.3451 22.6561C27.0022 22.3133 26.526 22.0996 26.0016 22.0996C25.4771 22.0996 25.0009 22.3133 24.6581 22.6561C24.3152 22.999 24.1016 23.4752 24.1016 23.9996C24.1016 24.524 24.3152 25.0003 24.6581 25.3431C25.0009 25.686 25.4771 25.8996 26.0016 25.8996C26.526 25.8996 27.0022 25.686 27.3451 25.3431C27.6879 25.0003 27.9016 24.524 27.9016 23.9996C27.9016 23.4752 27.6879 22.999 27.3451 22.6561Z" fill="#FFBA00"/>
</g>
<defs>
<filter id="filter0_d_298_2606" x="0" y="0" width="52" height="52" filterUnits="userSpaceOnUse" color-interpolation-filters="sRGB">
<feFlood flood-opacity="0" result="BackgroundImageFix"/>
<feColorMatrix in="SourceAlpha" type="matrix" values="0 0 0 0 0 0 0 0 0 0 0 0 0 0 0 0 0 0 127 0" result="hardAlpha"/>
<feOffset dy="2"/>
<feGaussianBlur stdDeviation="2"/>
<feColorMatrix type="matrix" values="0 0 0 0 0 0 0 0 0 0 0 0 0 0 0 0 0 0 0.08 0"/>
<feBlend mode="normal" in2="BackgroundImageFix" result="effect1_dropShadow_298_2606"/>
<feBlend mode="normal" in="SourceGraphic" in2="effect1_dropShadow_298_2606" result="shape"/>
</filter>
</defs>
</svg>
