<svg width="52" height="52" viewBox="0 0 52 52" fill="none" xmlns="http://www.w3.org/2000/svg">
<g filter="url(#filter0_d_298_2589)">
<rect x="4" y="2" width="44" height="44" rx="22" fill="white"/>
<path fill-rule="evenodd" clip-rule="evenodd" d="M17.1269 22.7813C17.2474 22.2991 17.7361 22.0059 18.2183 22.1265L18 22.9996C18.2183 22.1265 18.2184 22.1265 18.2183 22.1265L18.2217 22.1273L18.2423 22.1323C18.2619 22.1369 18.2928 22.1441 18.3349 22.1535C18.4191 22.1723 18.548 22.2 18.7197 22.2335C19.063 22.3007 19.5772 22.3916 20.2466 22.4829C21.5856 22.6655 23.5448 22.8496 26 22.8496C28.4552 22.8496 30.4144 22.6655 31.7534 22.4829C32.4228 22.3916 32.937 22.3007 33.2803 22.2335C33.452 22.2 33.5809 22.1723 33.6651 22.1535C33.7072 22.1441 33.7381 22.1369 33.7577 22.1323L33.7784 22.1273L33.7817 22.1265C33.7819 22.1264 33.7816 22.1265 33.7817 22.1265C34.2637 22.0064 34.7526 22.2994 34.8731 22.7813C34.9937 23.2635 34.7005 23.7522 34.2183 23.8727L34 22.9996C34.2183 23.8727 34.2185 23.8727 34.2183 23.8727L34.2134 23.8739L34.2041 23.8762L34.1725 23.8838C34.1456 23.8902 34.1072 23.8991 34.0576 23.9102C33.9582 23.9324 33.8137 23.9633 33.6259 24.0001C33.2505 24.0735 32.7022 24.1701 31.9966 24.2664C30.5856 24.4588 28.5448 24.6496 26 24.6496C23.4552 24.6496 21.4144 24.4588 20.0034 24.2664C19.2978 24.1701 18.7495 24.0735 18.3741 24.0001C18.1863 23.9633 18.0418 23.9324 17.9424 23.9102C17.8928 23.8991 17.8544 23.8902 17.8275 23.8838L17.7959 23.8762L17.7866 23.8739L17.7836 23.8732L17.7825 23.8729C17.7823 23.8729 17.7817 23.8727 18 22.9996L17.7825 23.8729C17.3003 23.7524 17.0063 23.2635 17.1269 22.7813ZM18.2183 22.1265C18.2182 22.1265 18.218 22.1264 18.2183 22.1265Z" fill="#FFBA00"/>
<path d="M35 28.4996C35 29.328 34.3284 29.9996 33.5 29.9996H33V31.1996C33 31.4796 33 31.6197 33.0545 31.7266C33.1024 31.8207 33.1789 31.8972 33.273 31.9451C33.38 31.9996 33.52 31.9996 33.8 31.9996H34.2C34.48 31.9996 34.62 31.9996 34.727 31.9451C34.8211 31.8972 34.8976 31.8207 34.9455 31.7266C35 31.6197 35 31.4796 35 31.1996V28.4996Z" fill="#FFBA00"/>
<path fill-rule="evenodd" clip-rule="evenodd" d="M34.1 31.0996H33.9V30.8664C33.9677 30.8551 34.0344 30.8409 34.1 30.824V31.0996ZM35.9 28.4996V31.1996C35.9 31.2069 35.9 31.2143 35.9 31.2217C35.9 31.342 35.9001 31.4803 35.8902 31.6013C35.8788 31.7403 35.8501 31.9337 35.7474 32.1352C35.6132 32.3986 35.399 32.6128 35.1356 32.747C34.9341 32.8497 34.7407 32.8785 34.6017 32.8898C34.4807 32.8997 34.3423 32.8997 34.2221 32.8996C34.2147 32.8996 34.2073 32.8996 34.2 32.8996H33.8C33.7927 32.8996 33.7853 32.8996 33.7779 32.8996C33.6577 32.8997 33.5193 32.8997 33.3983 32.8898C33.2593 32.8785 33.0659 32.8497 32.8644 32.747C32.601 32.6128 32.3868 32.3986 32.2526 32.1352C32.1499 31.9337 32.1212 31.7403 32.1098 31.6013C32.0999 31.4803 32.1 31.3419 32.1 31.2217C32.1 31.2143 32.1 31.2069 32.1 31.1996V29.0996H33.5C33.8314 29.0996 34.1 28.831 34.1 28.4996H35.9Z" fill="#FFBA00"/>
<path d="M17 28.4996C17 29.328 17.6716 29.9996 18.5 29.9996H19V31.1996C19 31.4796 19 31.6197 18.9455 31.7266C18.8976 31.8207 18.8211 31.8972 18.727 31.9451C18.62 31.9996 18.48 31.9996 18.2 31.9996H17.8C17.52 31.9996 17.38 31.9996 17.273 31.9451C17.1789 31.8972 17.1024 31.8207 17.0545 31.7266C17 31.6197 17 31.4796 17 31.1996V28.4996Z" fill="#FFBA00"/>
<path fill-rule="evenodd" clip-rule="evenodd" d="M17.9 31.0996H18.1V30.8664C18.0323 30.8551 17.9656 30.8409 17.9 30.824V31.0996ZM16.1 28.4996V31.1996C16.1 31.2069 16.1 31.2143 16.1 31.2217C16.1 31.342 16.0999 31.4803 16.1098 31.6013C16.1212 31.7403 16.1499 31.9337 16.2526 32.1352C16.3868 32.3986 16.601 32.6128 16.8644 32.747C17.0659 32.8497 17.2593 32.8785 17.3983 32.8898C17.5193 32.8997 17.6577 32.8997 17.7779 32.8996C17.7853 32.8996 17.7927 32.8996 17.8 32.8996H18.2C18.2073 32.8996 18.2147 32.8996 18.2221 32.8996C18.3423 32.8997 18.4806 32.8997 18.6017 32.8898C18.7407 32.8785 18.9341 32.8497 19.1356 32.747C19.399 32.6128 19.6132 32.3986 19.7474 32.1352C19.8501 31.9337 19.8788 31.7403 19.8902 31.6013C19.9001 31.4803 19.9 31.3419 19.9 31.2217C19.9 31.2143 19.9 31.2069 19.9 31.1996V29.0996H18.5C18.1686 29.0996 17.9 28.831 17.9 28.4996H16.1Z" fill="#FFBA00"/>
<path fill-rule="evenodd" clip-rule="evenodd" d="M23.6623 16.0996H28.3377C29.2008 16.0996 29.9166 16.0996 30.5047 16.1604C31.124 16.2244 31.6776 16.3615 32.1962 16.6821C32.7149 17.0026 33.0851 17.4364 33.4193 17.9617C33.7368 18.4606 34.0569 19.1008 34.4428 19.8728L35.9 22.7872V30.8996H16.1V22.7872L17.5572 19.8728C17.9431 19.1008 18.2632 18.4606 18.5807 17.9617C18.9149 17.4364 19.2851 17.0026 19.8038 16.6821C20.3224 16.3615 20.876 16.2244 21.4953 16.1604C22.0834 16.0996 22.7992 16.0996 23.6623 16.0996ZM21.6804 17.9508C21.2164 17.9988 20.9564 18.0857 20.7501 18.2132C20.5437 18.3408 20.3498 18.5344 20.0993 18.928C19.8377 19.3392 19.5583 19.8954 19.1466 20.7188L17.9 23.2121V29.0996H34.1V23.2121L32.8534 20.7188C32.4417 19.8954 32.1623 19.3392 31.9007 18.928C31.6502 18.5344 31.4563 18.3408 31.2499 18.2132C31.0436 18.0857 30.7836 17.9988 30.3196 17.9508C29.8348 17.9007 29.2124 17.8996 28.2918 17.8996H23.7082C22.7876 17.8996 22.1652 17.9007 21.6804 17.9508Z" fill="#FFBA00"/>
<path fill-rule="evenodd" clip-rule="evenodd" d="M15 22.6141V22.3848C15 21.8959 15.3963 21.4996 15.8852 21.4996H18V22.9996L17.6373 23.725C17.5489 23.9019 17.3986 24.0402 17.2149 24.1136C16.154 24.538 15 23.7567 15 22.6141ZM37 22.6141V22.3848C37 21.8959 36.6037 21.4996 36.1148 21.4996H34V22.9996L34.3627 23.725C34.4511 23.9019 34.6014 24.0402 34.7851 24.1136C35.846 24.538 37 23.7567 37 22.6141Z" fill="#FFBA00"/>
<path fill-rule="evenodd" clip-rule="evenodd" d="M19.107 26.388C19.1686 25.8948 19.6184 25.5449 20.1116 25.6066L22.1116 25.8566C22.6048 25.9182 22.9547 26.368 22.8931 26.8612C22.8314 27.3545 22.3816 27.7043 21.8884 27.6427L19.8884 27.3927C19.3952 27.331 19.0453 26.8812 19.107 26.388Z" fill="#FFBA00"/>
<path fill-rule="evenodd" clip-rule="evenodd" d="M32.8931 26.388C32.8314 25.8948 32.3816 25.5449 31.8884 25.6066L29.8884 25.8566C29.3952 25.9182 29.0453 26.368 29.107 26.8612C29.1686 27.3545 29.6184 27.7043 30.1116 27.6427L32.1116 27.3927C32.6048 27.331 32.9547 26.8812 32.8931 26.388Z" fill="#FFBA00"/>
</g>
<defs>
<filter id="filter0_d_298_2589" x="0" y="0" width="52" height="52" filterUnits="userSpaceOnUse" color-interpolation-filters="sRGB">
<feFlood flood-opacity="0" result="BackgroundImageFix"/>
<feColorMatrix in="SourceAlpha" type="matrix" values="0 0 0 0 0 0 0 0 0 0 0 0 0 0 0 0 0 0 127 0" result="hardAlpha"/>
<feOffset dy="2"/>
<feGaussianBlur stdDeviation="2"/>
<feColorMatrix type="matrix" values="0 0 0 0 0 0 0 0 0 0 0 0 0 0 0 0 0 0 0.08 0"/>
<feBlend mode="normal" in2="BackgroundImageFix" result="effect1_dropShadow_298_2589"/>
<feBlend mode="normal" in="SourceGraphic" in2="effect1_dropShadow_298_2589" result="shape"/>
</filter>
</defs>
</svg>
