<svg width="52" height="52" viewBox="0 0 52 52" fill="none" xmlns="http://www.w3.org/2000/svg">
<g filter="url(#filter0_d_298_2572)">
<rect x="4" y="2" width="44" height="44" rx="22" fill="white"/>
<path fill-rule="evenodd" clip-rule="evenodd" d="M25.7297 16.8358C25.9127 16.788 26.1048 16.7881 26.2877 16.8361C26.4536 16.8797 26.6337 16.9942 27.3838 17.5545L33.5568 22.1648C33.955 22.4622 34.519 22.3805 34.8164 21.9822C35.1138 21.584 35.0321 21.02 34.6339 20.7226L28.4609 16.1123L28.3461 16.0264C27.7752 15.5989 27.2958 15.2398 26.745 15.0952C26.2629 14.9685 25.7563 14.9683 25.274 15.0945C24.7231 15.2387 24.2433 15.5972 23.672 16.0242L23.5572 16.11L17.3699 20.7221C16.9714 21.0192 16.8892 21.5831 17.1862 21.9816C17.4833 22.3801 18.0472 22.4623 18.4457 22.1653L24.6329 17.5532C25.3835 16.9937 25.5637 16.8793 25.7297 16.8358ZM26.9016 22.8906C26.9016 22.3935 26.4986 21.9906 26.0016 21.9906C25.5045 21.9906 25.1016 22.3935 25.1016 22.8906V31.1004H22.9016V22.8929C22.9016 22.3959 22.4986 21.9929 22.0016 21.9929C21.5045 21.9929 21.1016 22.3959 21.1016 22.8929V31.1004H17.9039C17.4068 31.1004 17.0039 31.5033 17.0039 32.0004C17.0039 32.4974 17.4068 32.9004 17.9039 32.9004H34.0992C34.5963 32.9004 34.9992 32.4974 34.9992 32.0004C34.9992 31.5033 34.5963 31.1004 34.0992 31.1004H30.9016V22.8929C30.9016 22.3959 30.4986 21.9929 30.0016 21.9929C29.5045 21.9929 29.1016 22.3959 29.1016 22.8929V31.1004H26.9016V22.8906Z" fill="#FFBA00"/>
</g>
<defs>
<filter id="filter0_d_298_2572" x="0" y="0" width="52" height="52" filterUnits="userSpaceOnUse" color-interpolation-filters="sRGB">
<feFlood flood-opacity="0" result="BackgroundImageFix"/>
<feColorMatrix in="SourceAlpha" type="matrix" values="0 0 0 0 0 0 0 0 0 0 0 0 0 0 0 0 0 0 127 0" result="hardAlpha"/>
<feOffset dy="2"/>
<feGaussianBlur stdDeviation="2"/>
<feColorMatrix type="matrix" values="0 0 0 0 0 0 0 0 0 0 0 0 0 0 0 0 0 0 0.08 0"/>
<feBlend mode="normal" in2="BackgroundImageFix" result="effect1_dropShadow_298_2572"/>
<feBlend mode="normal" in="SourceGraphic" in2="effect1_dropShadow_298_2572" result="shape"/>
</filter>
</defs>
</svg>
