<svg width="52" height="52" viewBox="0 0 52 52" fill="none" xmlns="http://www.w3.org/2000/svg">
<g filter="url(#filter0_d_298_2576)">
<rect x="4" y="2" width="44" height="44" rx="22" fill="white"/>
<path fill-rule="evenodd" clip-rule="evenodd" d="M26.9016 13.9996C26.9016 13.5026 26.4986 13.0996 26.0016 13.0996C25.5045 13.0996 25.1016 13.5026 25.1016 13.9996V14.1743C22.8068 14.5593 21.0028 16.3916 20.6603 18.7005L20.5909 18.6893C20.4523 18.6669 20.3466 18.6483 20.2768 18.6356C20.2419 18.6293 20.216 18.6244 20.1994 18.6212L20.1816 18.6178L20.1781 18.6171C19.6908 18.5199 19.2165 18.8358 19.119 19.3231C19.0216 19.8105 19.3376 20.2847 19.8251 20.3821L19.8264 20.3824L19.8287 20.3829L19.8361 20.3843L19.8616 20.3892C19.8833 20.3934 19.9145 20.3993 19.9548 20.4066C20.0354 20.4212 20.1524 20.4417 20.3028 20.4661C20.5619 20.5081 20.9204 20.5617 21.3633 20.6168C21.3555 20.7267 21.3516 20.8377 21.3516 20.9496C21.3516 23.5185 23.4326 25.5996 26.0016 25.5996C28.5705 25.5996 30.6516 23.5185 30.6516 20.9496C30.6516 20.8377 30.6476 20.7267 30.6398 20.6168C31.0827 20.5617 31.4413 20.5081 31.7003 20.4661C31.8507 20.4417 31.9677 20.4212 32.0483 20.4066C32.0886 20.3993 32.1198 20.3934 32.1415 20.3892L32.167 20.3843L32.1744 20.3829L32.1767 20.3824L32.1778 20.3822C32.6652 20.2847 32.9816 19.8105 32.8841 19.3231C32.7866 18.8358 32.3126 18.5197 31.8253 18.617L31.8215 18.6178L31.8037 18.6212C31.7871 18.6244 31.7612 18.6293 31.7263 18.6356C31.6565 18.6483 31.5508 18.6669 31.4122 18.6893L31.3428 18.7005C31.0003 16.3916 29.1963 14.5593 26.9016 14.1743V13.9996ZM25.1017 16.013C25.1088 16.5039 25.509 16.8996 26.0016 16.8996C26.4941 16.8996 26.8943 16.5039 26.9015 16.013C28.2735 16.3661 29.3291 17.5078 29.5561 18.9261C28.5938 19.0205 27.3767 19.0996 26.0016 19.0996C24.6264 19.0996 23.4093 19.0205 22.447 18.9261C22.674 17.5078 23.7296 16.3661 25.1017 16.013ZM23.1557 20.7937C23.153 20.8453 23.1516 20.8973 23.1516 20.9496C23.1516 22.5244 24.4267 23.7996 26.0016 23.7996C27.5764 23.7996 28.8516 22.5244 28.8516 20.9496C28.8516 20.8973 28.8502 20.8453 28.8474 20.7937C28.0119 20.8558 27.0506 20.8996 26.0016 20.8996C24.9525 20.8996 23.9912 20.8558 23.1557 20.7937ZM19.9293 32.0804C19.8888 32.0455 19.8911 31.9611 19.8963 31.7644C19.8986 31.6766 19.9016 31.5664 19.9016 31.4282C19.9016 29.5356 22.6798 28.3996 26.0016 28.3996C29.3234 28.3996 32.1016 29.5356 32.1016 31.4282C32.1016 31.5663 32.1045 31.6765 32.1068 31.7643C32.1121 31.9611 32.1143 32.0455 32.0739 32.0804C32.0435 32.1066 31.9892 32.1049 31.894 32.102C31.8576 32.1009 31.8154 32.0996 31.7663 32.0996H20.2369C20.1877 32.0996 20.1455 32.1009 20.1092 32.102C20.014 32.1049 19.9596 32.1066 19.9293 32.0804ZM26.0016 26.5996C21.7744 26.5996 18.1016 28.1014 18.1016 31.4282C18.1016 33.1638 18.7871 33.8996 20.2369 33.8996H31.7663C33.216 33.8996 33.9016 33.1638 33.9016 31.4282C33.9016 28.1014 30.2288 26.5996 26.0016 26.5996Z" fill="#FFBA00"/>
</g>
<defs>
<filter id="filter0_d_298_2576" x="0" y="0" width="52" height="52" filterUnits="userSpaceOnUse" color-interpolation-filters="sRGB">
<feFlood flood-opacity="0" result="BackgroundImageFix"/>
<feColorMatrix in="SourceAlpha" type="matrix" values="0 0 0 0 0 0 0 0 0 0 0 0 0 0 0 0 0 0 127 0" result="hardAlpha"/>
<feOffset dy="2"/>
<feGaussianBlur stdDeviation="2"/>
<feColorMatrix type="matrix" values="0 0 0 0 0 0 0 0 0 0 0 0 0 0 0 0 0 0 0.08 0"/>
<feBlend mode="normal" in2="BackgroundImageFix" result="effect1_dropShadow_298_2576"/>
<feBlend mode="normal" in="SourceGraphic" in2="effect1_dropShadow_298_2576" result="shape"/>
</filter>
</defs>
</svg>
