<svg width="52" height="52" viewBox="0 0 52 52" fill="none" xmlns="http://www.w3.org/2000/svg">
<g filter="url(#filter0_d_298_2585)">
<rect x="4" y="2" width="44" height="44" rx="22" fill="white"/>
<path fill-rule="evenodd" clip-rule="evenodd" d="M17.9622 20.8965L24.4171 17.2228C25.3984 16.6643 26.6015 16.6643 27.5828 17.2228L34.0377 20.8965C34.0704 20.9152 34.0795 20.9298 34.0838 20.9377C34.091 20.9505 34.0983 20.9722 34.0983 21.0008C34.0983 21.0294 34.091 21.0512 34.0838 21.064C34.0795 21.0718 34.0704 21.0865 34.0377 21.1051L27.5828 24.7788C26.6015 25.3374 25.3984 25.3374 24.4171 24.7788L17.9622 21.1051C17.9295 21.0865 17.9204 21.0718 17.9161 21.064C17.9089 21.0512 17.9016 21.0294 17.9016 21.0008C17.9016 20.9722 17.9089 20.9505 17.9161 20.9377C17.9204 20.9298 17.9295 20.9152 17.9622 20.8965ZM17.0719 22.6695C15.7781 21.9332 15.7781 20.0685 17.0719 19.3322L23.5267 15.6584C25.0601 14.7857 26.9398 14.7857 28.4731 15.6584L34.928 19.3322C35.5742 19.6999 35.8977 20.3492 35.8983 20.9988L35.9 21.0009V25.1009C35.9 25.5979 35.497 26.0009 35 26.0009C34.5029 26.0009 34.1 25.5979 34.1 25.1009V23.1408L28.4731 26.3432C26.9398 27.2159 25.0601 27.2159 23.5267 26.3432L17.0719 22.6695Z" fill="#F5C33C"/>
<path fill-rule="evenodd" clip-rule="evenodd" d="M31.2 23.1009V25.1093C31.2 26.5242 31.1993 27.5313 31.1349 28.3199C31.0713 29.0981 30.9502 29.5838 30.7532 29.9706C30.3601 30.7421 29.7329 31.3693 28.9614 31.7624C28.5746 31.9594 28.0888 32.0805 27.3107 32.1441C26.9314 32.1751 26.5015 32.1914 26 32.1999V34.0001C26.5434 33.9911 27.0261 33.9734 27.4573 33.9381C28.3467 33.8655 29.0958 33.7141 29.7786 33.3662C30.8887 32.8005 31.7913 31.8979 32.357 30.7878C32.7049 30.105 32.8563 29.3559 32.9289 28.4665C33 27.596 33 26.5155 33 25.149V23.1009H31.2Z" fill="#F5C33C"/>
<path fill-rule="evenodd" clip-rule="evenodd" d="M20.9001 23.1009V25.1109C20.9001 26.5259 20.9008 27.533 20.9652 28.3216C21.0288 29.0997 21.1499 29.5855 21.347 29.9722C21.74 30.7437 22.3673 31.3709 23.1387 31.764C23.5255 31.9611 24.0113 32.0822 24.7894 32.1457C25.1432 32.1746 25.541 32.1909 26 32.1999V34.0001C25.4971 33.9906 25.0473 33.9728 24.6428 33.9398C23.7534 33.8671 23.0043 33.7157 22.3215 33.3678C21.2114 32.8022 20.3088 31.8996 19.7431 30.7894C19.3952 30.1066 19.2439 29.3576 19.1712 28.4682C19.1001 27.5977 19.1001 26.5171 19.1001 25.1506V23.1009H20.9001Z" fill="#F5C33C"/>
</g>
<defs>
<filter id="filter0_d_298_2585" x="0" y="0" width="52" height="52" filterUnits="userSpaceOnUse" color-interpolation-filters="sRGB">
<feFlood flood-opacity="0" result="BackgroundImageFix"/>
<feColorMatrix in="SourceAlpha" type="matrix" values="0 0 0 0 0 0 0 0 0 0 0 0 0 0 0 0 0 0 127 0" result="hardAlpha"/>
<feOffset dy="2"/>
<feGaussianBlur stdDeviation="2"/>
<feColorMatrix type="matrix" values="0 0 0 0 0 0 0 0 0 0 0 0 0 0 0 0 0 0 0.08 0"/>
<feBlend mode="normal" in2="BackgroundImageFix" result="effect1_dropShadow_298_2585"/>
<feBlend mode="normal" in="SourceGraphic" in2="effect1_dropShadow_298_2585" result="shape"/>
</filter>
</defs>
</svg>
