<svg width="52" height="52" viewBox="0 0 52 52" fill="none" xmlns="http://www.w3.org/2000/svg">
<g filter="url(#filter0_d_298_2568)">
<rect x="4" y="2" width="44" height="44" rx="22" fill="white"/>
<path fill-rule="evenodd" clip-rule="evenodd" d="M19.0012 16.9993C20.7918 15.2087 23.268 14.0996 26.0016 14.0996C28.7351 14.0996 31.2114 15.2087 33.0019 16.9993C34.7925 18.7898 35.9016 21.266 35.9016 23.9996C35.9016 26.7332 34.7925 29.2094 33.0019 31C31.2114 32.7905 28.7351 33.8996 26.0016 33.8996C23.268 33.8996 20.7918 32.7905 19.0012 31C17.2106 29.2094 16.1016 26.7332 16.1016 23.9996C16.1016 21.266 17.2106 18.7898 19.0012 16.9993ZM26.9013 31.9996C26.9013 29.8661 26.1506 27.9079 24.8989 26.3748L26.5013 24.7724L31.591 29.8621C30.3406 31.0547 28.7111 31.8505 26.9012 32.0503L26.9013 31.9996ZM25.1013 31.9996C25.1013 30.3634 24.5479 28.8565 23.6179 27.6558L20.9455 30.3283C22.1111 31.2609 23.5389 31.8776 25.1012 32.0502L25.1013 31.9996ZM18.0013 24.8996C19.6375 24.8996 21.1445 25.4531 22.3451 26.383L19.6727 29.0554C18.7402 27.8898 18.1235 26.462 17.951 24.8998L18.0013 24.8996ZM26.5013 22.2268L28.1037 20.6244C27.0305 19.3099 26.3256 17.6829 26.1464 15.9009C26.0982 15.9 26.0499 15.8996 26.0016 15.8996C24.3455 15.8996 22.8063 16.396 21.5234 17.2489L26.5013 22.2268ZM31.0574 17.6708L29.3847 19.3434C28.6766 18.4292 28.1868 17.3374 27.9934 16.1462C29.1293 16.4332 30.1694 16.9603 31.0574 17.6708ZM33.855 22.0075C32.6637 21.8142 31.5718 21.3243 30.6575 20.6162L32.3302 18.9435C33.0407 19.8315 33.5678 20.8717 33.855 22.0075ZM27.7741 23.4996L29.3765 21.8972C30.6911 22.9704 32.3181 23.6754 34.1003 23.8546C34.1011 23.9028 34.1016 23.9512 34.1016 23.9996C34.1016 25.6557 33.6052 27.1949 32.7523 28.4778L27.7741 23.4996ZM23.6261 25.102L25.2285 23.4996L20.1391 18.4102C18.9465 19.6605 18.1508 21.2899 17.9509 23.0997L18.0013 23.0996C20.1348 23.0996 22.093 23.8503 23.6261 25.102Z" fill="#FFBA00"/>
</g>
<defs>
<filter id="filter0_d_298_2568" x="0" y="0" width="52" height="52" filterUnits="userSpaceOnUse" color-interpolation-filters="sRGB">
<feFlood flood-opacity="0" result="BackgroundImageFix"/>
<feColorMatrix in="SourceAlpha" type="matrix" values="0 0 0 0 0 0 0 0 0 0 0 0 0 0 0 0 0 0 127 0" result="hardAlpha"/>
<feOffset dy="2"/>
<feGaussianBlur stdDeviation="2"/>
<feColorMatrix type="matrix" values="0 0 0 0 0 0 0 0 0 0 0 0 0 0 0 0 0 0 0.08 0"/>
<feBlend mode="normal" in2="BackgroundImageFix" result="effect1_dropShadow_298_2568"/>
<feBlend mode="normal" in="SourceGraphic" in2="effect1_dropShadow_298_2568" result="shape"/>
</filter>
</defs>
</svg>
