<svg width="52" height="52" viewBox="0 0 52 52" fill="none" xmlns="http://www.w3.org/2000/svg">
<g filter="url(#filter0_d_298_2580)">
<rect x="4" y="2" width="44" height="44" rx="22" fill="white"/>
<g clip-path="url(#clip0_298_2580)">
<path d="M31.1231 16.1992C34.0274 16.1992 35.9537 18.0343 37.0158 21.0747C37.7255 23.1064 38 25.4721 38 27.8135C38 31.2205 37.1631 32.5706 34.6096 32.5706C33.3559 32.5706 32.4952 31.7772 30.972 29.8112C29.7533 28.2383 29.2902 27.7492 29.1308 27.7492H22.8692C22.6738 27.7492 22.0344 28.3652 20.8353 29.814L20.819 29.8337C19.0371 31.987 18.4347 32.5706 17.3904 32.5706C14.8369 32.5706 14 31.2205 14 27.8135C14 25.4721 14.2745 23.1064 14.9842 21.0747C16.0463 18.0343 17.9726 16.1992 20.8769 16.1992H31.1231ZM31.1231 17.9992H20.8769C17.2695 17.9992 15.8 22.2058 15.8 27.8135C15.8 30.353 16.0589 30.7706 17.3904 30.7706C17.5816 30.7706 18.2161 30.1557 19.4323 28.6861L19.4486 28.6664C21.1993 26.5511 21.824 25.9492 22.8692 25.9492H29.1308C30.1958 25.9492 30.5317 26.3039 32.3949 28.7087C33.5176 30.1578 34.1823 30.7706 34.6096 30.7706C35.9411 30.7706 36.2 30.353 36.2 27.8135C36.2 22.2058 34.7305 17.9992 31.1231 17.9992ZM21.14 19.7135C21.4572 19.7135 21.7143 19.9706 21.7143 20.2878L21.7137 21.4275L22.8543 21.4278C23.1715 21.4278 23.4286 21.6849 23.4286 22.0021V22.5678C23.4286 22.885 23.1715 23.1421 22.8543 23.1421L21.7137 23.1415L21.7143 24.2821C21.7143 24.5992 21.4572 24.8564 21.14 24.8564H20.5743C20.2571 24.8564 20 24.5992 20 24.2821L19.9997 23.1415L18.86 23.1421C18.5428 23.1421 18.2857 22.885 18.2857 22.5678V22.0021C18.2857 21.6849 18.5428 21.4278 18.86 21.4278L19.9997 21.4275L20 20.2878C20 19.9706 20.2571 19.7135 20.5743 19.7135H21.14ZM31.4257 23.1421C31.7429 23.1421 32 23.3992 32 23.7164V24.2821C32 24.5992 31.7429 24.8564 31.4257 24.8564H30.86C30.5428 24.8564 30.2857 24.5992 30.2857 24.2821V23.7164C30.2857 23.3992 30.5428 23.1421 30.86 23.1421H31.4257ZM29.7114 21.4278C30.0286 21.4278 30.2857 21.6849 30.2857 22.0021V22.5678C30.2857 22.885 30.0286 23.1421 29.7114 23.1421H29.1457C28.8285 23.1421 28.5714 22.885 28.5714 22.5678V22.0021C28.5714 21.6849 28.8285 21.4278 29.1457 21.4278H29.7114ZM33.14 21.4278C33.4572 21.4278 33.7143 21.6849 33.7143 22.0021V22.5678C33.7143 22.885 33.4572 23.1421 33.14 23.1421H32.5743C32.2571 23.1421 32 22.885 32 22.5678V22.0021C32 21.6849 32.2571 21.4278 32.5743 21.4278H33.14ZM31.4257 19.7135C31.7429 19.7135 32 19.9706 32 20.2878V20.8535C32 21.1707 31.7429 21.4278 31.4257 21.4278H30.86C30.5428 21.4278 30.2857 21.1707 30.2857 20.8535V20.2878C30.2857 19.9706 30.5428 19.7135 30.86 19.7135H31.4257Z" fill="#FFBA00"/>
</g>
</g>
<defs>
<filter id="filter0_d_298_2580" x="0" y="0" width="52" height="52" filterUnits="userSpaceOnUse" color-interpolation-filters="sRGB">
<feFlood flood-opacity="0" result="BackgroundImageFix"/>
<feColorMatrix in="SourceAlpha" type="matrix" values="0 0 0 0 0 0 0 0 0 0 0 0 0 0 0 0 0 0 127 0" result="hardAlpha"/>
<feOffset dy="2"/>
<feGaussianBlur stdDeviation="2"/>
<feColorMatrix type="matrix" values="0 0 0 0 0 0 0 0 0 0 0 0 0 0 0 0 0 0 0.08 0"/>
<feBlend mode="normal" in2="BackgroundImageFix" result="effect1_dropShadow_298_2580"/>
<feBlend mode="normal" in="SourceGraphic" in2="effect1_dropShadow_298_2580" result="shape"/>
</filter>
<clipPath id="clip0_298_2580">
<rect width="24" height="24" fill="white" transform="translate(14 12)"/>
</clipPath>
</defs>
</svg>
