<svg width="52" height="52" viewBox="0 0 52 52" fill="none" xmlns="http://www.w3.org/2000/svg">
<g filter="url(#filter0_d_298_2601)">
<rect x="4" y="2" width="44" height="44" rx="22" fill="white"/>
<path d="M26.0016 13.0996C28.763 13.0996 31.0016 15.3382 31.0016 18.0996H31.0557C32.393 18.0996 32.8779 18.2388 33.3668 18.5003C33.8557 18.7618 34.2394 19.1455 34.5009 19.6343C34.7623 20.1232 34.9016 20.6082 34.9016 21.9454V26.834C34.9016 28.923 34.6811 29.6955 34.2671 30.4696C33.8531 31.2437 33.2456 31.8512 32.4716 32.2652C31.6975 32.6791 30.925 32.8996 28.8359 32.8996H23.1672C21.0781 32.8996 20.3056 32.6791 19.5316 32.2652C18.7575 31.8512 18.15 31.2437 17.736 30.4696C17.322 29.6955 17.1016 28.923 17.1016 26.834V21.9454C17.1016 20.6082 17.2408 20.1232 17.5023 19.6343C17.7637 19.1455 18.1474 18.7618 18.6363 18.5003C19.1252 18.2388 19.6101 18.0996 20.9474 18.0996H21.0016C21.0016 15.3382 23.2401 13.0996 26.0016 13.0996ZM31.2484 19.9004L20.9474 19.8996C19.9999 19.8996 19.7444 19.949 19.4852 20.0876C19.31 20.1813 19.1832 20.308 19.0895 20.4832C18.9509 20.7424 18.9016 20.9979 18.9016 21.9454V26.834C18.9016 28.469 19.0121 29.0389 19.3233 29.6207C19.5695 30.0811 19.92 30.4317 20.3804 30.6779C20.9623 30.9891 21.5322 31.0996 23.1672 31.0996H28.8359C30.4709 31.0996 31.0408 30.9891 31.6227 30.6779C32.0831 30.4317 32.4336 30.0811 32.6799 29.6207C32.991 29.0389 33.1016 28.469 33.1016 26.834V21.9454C33.1016 20.9979 33.0522 20.7424 32.9136 20.4832C32.8199 20.308 32.6932 20.1813 32.518 20.0876C32.2773 19.9589 32.0397 19.9071 31.2484 19.9004ZM29.9476 20.9996C30.1529 20.9996 30.2957 21.0344 30.4179 21.0998C30.5401 21.1651 30.636 21.2611 30.7014 21.3833C30.7668 21.5055 30.8016 21.6482 30.8016 21.8536V21.9456C30.8016 22.151 30.7668 22.2937 30.7014 22.4159C30.636 22.5381 30.5401 22.6341 30.4179 22.6994C30.2957 22.7648 30.1529 22.7996 29.9476 22.7996H29.8555C29.6502 22.7996 29.5075 22.7648 29.3852 22.6994C29.263 22.6341 29.1671 22.5381 29.1017 22.4159C29.0364 22.2937 29.0016 22.151 29.0016 21.9456V21.8536C29.0016 21.6482 29.0364 21.5055 29.1017 21.3833C29.1671 21.2611 29.263 21.1651 29.3852 21.0998C29.5075 21.0344 29.6502 20.9996 29.8555 20.9996H29.9476ZM21.9476 20.9996C22.1529 20.9996 22.2957 21.0344 22.4179 21.0998C22.5401 21.1651 22.636 21.2611 22.7014 21.3833C22.7668 21.5055 22.8016 21.6482 22.8016 21.8536V21.9456C22.8016 22.151 22.7668 22.2937 22.7014 22.4159C22.636 22.5381 22.5401 22.6341 22.4179 22.6994C22.2957 22.7648 22.1529 22.7996 21.9476 22.7996H21.8556C21.6502 22.7996 21.5075 22.7648 21.3852 22.6994C21.263 22.6341 21.1671 22.5381 21.1017 22.4159C21.0364 22.2937 21.0016 22.151 21.0016 21.9456V21.8536C21.0016 21.6482 21.0364 21.5055 21.1017 21.3833C21.1671 21.2611 21.263 21.1651 21.3852 21.0998C21.5075 21.0344 21.6502 20.9996 21.8556 20.9996H21.9476ZM26.0016 14.8996C24.2343 14.8996 22.8016 16.3323 22.8016 18.0996H29.2016C29.2016 16.3323 27.7689 14.8996 26.0016 14.8996Z" fill="#FFBA00"/>
</g>
<defs>
<filter id="filter0_d_298_2601" x="0" y="0" width="52" height="52" filterUnits="userSpaceOnUse" color-interpolation-filters="sRGB">
<feFlood flood-opacity="0" result="BackgroundImageFix"/>
<feColorMatrix in="SourceAlpha" type="matrix" values="0 0 0 0 0 0 0 0 0 0 0 0 0 0 0 0 0 0 127 0" result="hardAlpha"/>
<feOffset dy="2"/>
<feGaussianBlur stdDeviation="2"/>
<feColorMatrix type="matrix" values="0 0 0 0 0 0 0 0 0 0 0 0 0 0 0 0 0 0 0.08 0"/>
<feBlend mode="normal" in2="BackgroundImageFix" result="effect1_dropShadow_298_2601"/>
<feBlend mode="normal" in="SourceGraphic" in2="effect1_dropShadow_298_2601" result="shape"/>
</filter>
</defs>
</svg>
