<svg width="52" height="52" viewBox="0 0 52 52" fill="none" xmlns="http://www.w3.org/2000/svg">
<g filter="url(#filter0_d_298_2622)">
<rect x="4" y="2" width="44" height="44" rx="22" fill="white"/>
<path fill-rule="evenodd" clip-rule="evenodd" d="M26.0015 27.6369L29.3016 25.7317C30.6349 24.9619 30.6349 23.0374 29.3016 22.2676L26.0015 20.3623C24.6682 19.5925 23.0015 20.5548 23.0015 22.0944L23.0015 25.9049C23.0015 27.4445 24.6682 28.4068 26.0015 27.6369ZM28.4016 23.8264C28.5349 23.9034 28.5349 24.0959 28.4016 24.1728L25.1015 26.0781C24.9682 26.1551 24.8015 26.0589 24.8015 25.9049V22.0944C24.8015 21.9404 24.9682 21.8442 25.1015 21.9211L28.4016 23.8264Z" fill="#FFBA00"/>
<path fill-rule="evenodd" clip-rule="evenodd" d="M19.0012 16.9993C20.7918 15.2087 23.268 14.0996 26.0016 14.0996C28.7351 14.0996 31.2114 15.2087 33.0019 16.9993C34.7925 18.7898 35.9016 21.266 35.9016 23.9996C35.9016 26.7332 34.7925 29.2094 33.0019 31C31.2114 32.7905 28.7351 33.8996 26.0016 33.8996C23.268 33.8996 20.7918 32.7905 19.0012 31C17.2106 29.2094 16.1016 26.7332 16.1016 23.9996C16.1016 21.266 17.2106 18.7898 19.0012 16.9993ZM26.0016 15.8996C23.7646 15.8996 21.7408 16.8052 20.274 18.272C18.8072 19.7388 17.9016 21.7626 17.9016 23.9996C17.9016 26.2366 18.8072 28.2604 20.274 29.7272C21.7408 31.194 23.7646 32.0996 26.0016 32.0996C28.2386 32.0996 30.2623 31.194 31.7291 29.7272C33.1959 28.2604 34.1016 26.2366 34.1016 23.9996C34.1016 21.7626 33.1959 19.7388 31.7291 18.272C30.2623 16.8052 28.2386 15.8996 26.0016 15.8996Z" fill="#FFBA00"/>
</g>
<defs>
<filter id="filter0_d_298_2622" x="0" y="0" width="52" height="52" filterUnits="userSpaceOnUse" color-interpolation-filters="sRGB">
<feFlood flood-opacity="0" result="BackgroundImageFix"/>
<feColorMatrix in="SourceAlpha" type="matrix" values="0 0 0 0 0 0 0 0 0 0 0 0 0 0 0 0 0 0 127 0" result="hardAlpha"/>
<feOffset dy="2"/>
<feGaussianBlur stdDeviation="2"/>
<feColorMatrix type="matrix" values="0 0 0 0 0 0 0 0 0 0 0 0 0 0 0 0 0 0 0.08 0"/>
<feBlend mode="normal" in2="BackgroundImageFix" result="effect1_dropShadow_298_2622"/>
<feBlend mode="normal" in="SourceGraphic" in2="effect1_dropShadow_298_2622" result="shape"/>
</filter>
</defs>
</svg>
