<svg width="52" height="52" viewBox="0 0 52 52" fill="none" xmlns="http://www.w3.org/2000/svg">
<g filter="url(#filter0_d_298_2618)">
<rect x="4" y="2" width="44" height="44" rx="22" fill="white"/>
<path d="M19.3752 20.3975C19.2012 20.4895 19.013 20.3013 19.1049 20.1272L20.0968 18.2509L19.1049 16.3745C19.013 16.2005 19.2012 16.0122 19.3752 16.1042L21.2516 17.0961L23.128 16.1042C23.302 16.0122 23.4902 16.2005 23.3982 16.3745L22.4064 18.2509L23.3982 20.1272C23.4902 20.3013 23.302 20.4895 23.128 20.3975L21.2516 19.4057L19.3752 20.3975Z" fill="#FFBA00"/>
<path d="M31.2516 18.9057L29.3752 19.8975C29.2012 19.9895 29.013 19.8013 29.1049 19.6272L30.0968 17.7509L29.1049 15.8745C29.013 15.7005 29.2012 15.5122 29.3752 15.6042L31.2516 16.5961L33.128 15.6042C33.302 15.5122 33.4902 15.7005 33.3982 15.8745L32.4064 17.7509L33.3982 19.6272C33.4902 19.8013 33.302 19.9895 33.128 19.8975L31.2516 18.9057Z" fill="#FFBA00"/>
<path d="M29.3752 29.3975C29.2012 29.4895 29.013 29.3013 29.1049 29.1273L30.0968 27.2509L29.1049 25.3745C29.013 25.2005 29.2012 25.0122 29.3752 25.1042L31.2516 26.0961L33.128 25.1042C33.302 25.0122 33.4902 25.2005 33.3982 25.3745L32.4064 27.2509L33.3982 29.1273C33.4902 29.3013 33.302 29.4895 33.128 29.3975L31.2516 28.4057L29.3752 29.3975Z" fill="#FFBA00"/>
<path fill-rule="evenodd" clip-rule="evenodd" d="M27.138 22.3645C27.4894 22.716 27.4894 23.2858 27.138 23.6373L17.638 33.1373C17.2865 33.4888 16.7166 33.4888 16.3652 33.1373C16.0137 32.7858 16.0137 32.216 16.3652 31.8645L25.8652 22.3645C26.2166 22.013 26.7865 22.013 27.138 22.3645Z" fill="#FFBA00"/>
</g>
<defs>
<filter id="filter0_d_298_2618" x="0" y="0" width="52" height="52" filterUnits="userSpaceOnUse" color-interpolation-filters="sRGB">
<feFlood flood-opacity="0" result="BackgroundImageFix"/>
<feColorMatrix in="SourceAlpha" type="matrix" values="0 0 0 0 0 0 0 0 0 0 0 0 0 0 0 0 0 0 127 0" result="hardAlpha"/>
<feOffset dy="2"/>
<feGaussianBlur stdDeviation="2"/>
<feColorMatrix type="matrix" values="0 0 0 0 0 0 0 0 0 0 0 0 0 0 0 0 0 0 0.08 0"/>
<feBlend mode="normal" in2="BackgroundImageFix" result="effect1_dropShadow_298_2618"/>
<feBlend mode="normal" in="SourceGraphic" in2="effect1_dropShadow_298_2618" result="shape"/>
</filter>
</defs>
</svg>
