<svg width="52" height="52" viewBox="0 0 52 52" fill="none" xmlns="http://www.w3.org/2000/svg">
<g filter="url(#filter0_d_298_2597)">
<rect x="4" y="2" width="44" height="44" rx="22" fill="white"/>
<path fill-rule="evenodd" clip-rule="evenodd" d="M19.6278 14.7324C19.9793 14.3809 20.5491 14.3809 20.9006 14.7324L27.2181 21.0498C27.2345 21.0663 27.2501 21.0831 27.265 21.1005H33.6685C33.6903 21.1005 33.7125 21.1004 33.735 21.1004C33.9727 21.0997 34.2465 21.099 34.4936 21.1652C35.1492 21.3409 35.6614 21.853 35.8371 22.5087C35.9033 22.7558 35.9025 23.0296 35.9019 23.2672C35.9019 23.2898 35.9018 23.312 35.9018 23.3338C35.9018 23.3859 35.9018 23.4373 35.9018 23.488C35.9021 24.8901 35.9022 25.7756 35.7008 26.5275C35.189 28.4375 33.7578 29.9552 31.9018 30.5862V31.0205C31.9018 31.0494 31.9018 31.0782 31.9019 31.1068C31.9024 31.465 31.9028 31.7997 31.8264 32.0973C31.6087 32.9452 30.9466 33.6074 30.0987 33.8251C29.801 33.9015 29.4663 33.901 29.1082 33.9005C29.0795 33.9005 29.0507 33.9005 29.0218 33.9005H22.9818C22.9529 33.9005 22.9241 33.9005 22.8954 33.9005C22.5373 33.901 22.2026 33.9015 21.9049 33.8251C21.057 33.6074 20.3949 32.9452 20.1772 32.0973C20.1008 31.7997 20.1012 31.465 20.1017 31.1068C20.1018 31.0782 20.1018 31.0494 20.1018 31.0205V30.5862C18.2458 29.9552 16.8146 28.4375 16.3028 26.5275C16.1014 25.7756 16.1015 24.8901 16.1018 23.4881C16.1018 23.4373 16.1018 23.3859 16.1018 23.3338C16.1018 23.312 16.1017 23.2898 16.1017 23.2672C16.1011 23.0296 16.1003 22.7558 16.1665 22.5087C16.3422 21.853 16.8544 21.3409 17.51 21.1652C17.7571 21.099 18.0309 21.0997 18.2686 21.1004C18.2911 21.1004 18.3133 21.1005 18.3351 21.1005H20.4805L17.5065 18.1265C17.155 17.775 17.155 17.2051 17.5065 16.8537C17.8579 16.5022 18.4278 16.5022 18.7793 16.8537L23.0261 21.1005H24.7231L19.6278 16.0051C19.2763 15.6537 19.2763 15.0838 19.6278 14.7324ZM23.6685 29.1005H28.3351C29.943 29.1005 30.5704 29.0927 31.063 28.9608C32.4778 28.5817 33.583 27.4765 33.9621 26.0616C34.0941 25.5691 34.1018 24.9417 34.1018 23.3338C34.1018 23.1707 34.1016 23.0783 34.0985 23.0102C34.0974 22.9876 34.0963 22.9733 34.0955 22.9655C34.0854 22.9384 34.0639 22.9169 34.0368 22.9068C34.0289 22.906 34.0147 22.9048 33.9921 22.9038C33.924 22.9007 33.8316 22.9005 33.6685 22.9005H18.3351C18.172 22.9005 18.0796 22.9007 18.0115 22.9038C17.9889 22.9048 17.9747 22.906 17.9668 22.9068C17.9397 22.9169 17.9182 22.9384 17.9081 22.9655C17.9073 22.9733 17.9062 22.9876 17.9051 23.0102C17.902 23.0783 17.9018 23.1707 17.9018 23.3338C17.9018 24.9417 17.9095 25.5691 18.0415 26.0616C18.4206 27.4765 19.5258 28.5817 20.9406 28.9608C21.4332 29.0927 22.0606 29.1005 23.6685 29.1005ZM21.9018 30.9005V31.0205C21.9018 31.5224 21.9089 31.604 21.9207 31.6497C21.9751 31.8617 22.1406 32.0272 22.3526 32.0816C22.3982 32.0933 22.4799 32.1005 22.9818 32.1005H29.0218C29.5237 32.1005 29.6054 32.0933 29.651 32.0816C29.863 32.0272 30.0285 31.8617 30.083 31.6497C30.0947 31.604 30.1018 31.5224 30.1018 31.0205V30.9005H28.7807C28.6861 30.9005 28.5891 30.9005 28.4894 30.9005C28.4387 30.9005 28.3873 30.9005 28.3351 30.9005H23.6685C23.6164 30.9005 23.5649 30.9005 23.5142 30.9005C23.4145 30.9005 23.3175 30.9005 23.2229 30.9005H21.9018Z" fill="#FFBA00"/>
</g>
<defs>
<filter id="filter0_d_298_2597" x="0" y="0" width="52" height="52" filterUnits="userSpaceOnUse" color-interpolation-filters="sRGB">
<feFlood flood-opacity="0" result="BackgroundImageFix"/>
<feColorMatrix in="SourceAlpha" type="matrix" values="0 0 0 0 0 0 0 0 0 0 0 0 0 0 0 0 0 0 127 0" result="hardAlpha"/>
<feOffset dy="2"/>
<feGaussianBlur stdDeviation="2"/>
<feColorMatrix type="matrix" values="0 0 0 0 0 0 0 0 0 0 0 0 0 0 0 0 0 0 0.08 0"/>
<feBlend mode="normal" in2="BackgroundImageFix" result="effect1_dropShadow_298_2597"/>
<feBlend mode="normal" in="SourceGraphic" in2="effect1_dropShadow_298_2597" result="shape"/>
</filter>
</defs>
</svg>
