<svg width="52" height="52" viewBox="0 0 52 52" fill="none" xmlns="http://www.w3.org/2000/svg">
<g filter="url(#filter0_d_298_2564)">
<rect x="4" y="2" width="44" height="44" rx="22" fill="white"/>
<path d="M28.2986 13.4339C29.031 13.6049 29.6757 13.9771 30.1899 14.5259C30.7112 15.0822 31.0145 15.6716 31.341 16.8238L32.1318 19.7681C32.2747 20.3016 31.9581 20.8499 31.4247 20.9929C30.8912 21.1358 30.3429 20.8192 30.1999 20.2858L29.4795 17.5971L29.3669 17.1948C29.1519 16.4662 28.9903 16.1707 28.7305 15.8934C28.4866 15.633 28.1915 15.4627 27.844 15.3816C27.474 15.2952 27.1373 15.3031 26.3988 15.4812L25.9941 15.5848L20.8666 16.9587C20.0126 17.1875 19.6129 17.3533 19.3578 17.5419L19.2969 17.5895L19.1629 17.7077C18.9026 17.9516 18.7322 18.2467 18.6511 18.5942C18.5575 18.995 18.5746 19.3568 18.7988 20.2326L21.5223 30.4012L21.635 30.8035C21.8499 31.5321 22.0115 31.8276 22.2713 32.1049C22.5153 32.3652 22.8103 32.5356 23.1578 32.6167C23.559 32.7104 23.9031 32.6931 24.7651 32.4766C25.3008 32.342 25.8441 32.6672 25.9786 33.2028C26.1131 33.7385 25.788 34.2818 25.2523 34.4163C24.1035 34.7048 23.4466 34.7379 22.7032 34.5644C21.9708 34.3934 21.3261 34.0212 20.8119 33.4724C20.2906 32.9161 19.9873 32.3267 19.6609 31.1745L16.9225 20.9617C16.5678 19.6382 16.5178 18.935 16.7035 18.1396C16.8554 17.4886 17.1664 16.9068 17.6336 16.4112L17.8161 16.2294L17.9949 16.0717C18.4906 15.66 19.0722 15.3873 20.0863 15.0993L20.349 15.0268L25.4765 13.6529C26.8 13.2983 27.5032 13.2483 28.2986 13.4339ZM32.3693 22.9991C34.3695 22.9991 36.0009 24.5907 36.0009 26.5664C36.0009 28.4754 35.2293 29.4175 32.221 31.7001L30.8932 32.7075C30.3657 33.1078 29.6361 33.1078 29.1086 32.7075L27.7808 31.7001C24.7725 29.4175 24.0009 28.4754 24.0009 26.5664C24.0009 24.5907 25.6323 22.9991 27.6325 22.9991C28.4617 22.9991 29.2284 23.2228 29.9149 23.6588L30.0009 23.7161L30.0869 23.6588C30.7048 23.2664 31.3876 23.046 32.1225 23.0058L32.3693 22.9991Z" fill="#FFBA00"/>
</g>
<defs>
<filter id="filter0_d_298_2564" x="0" y="0" width="52" height="52" filterUnits="userSpaceOnUse" color-interpolation-filters="sRGB">
<feFlood flood-opacity="0" result="BackgroundImageFix"/>
<feColorMatrix in="SourceAlpha" type="matrix" values="0 0 0 0 0 0 0 0 0 0 0 0 0 0 0 0 0 0 127 0" result="hardAlpha"/>
<feOffset dy="2"/>
<feGaussianBlur stdDeviation="2"/>
<feColorMatrix type="matrix" values="0 0 0 0 0 0 0 0 0 0 0 0 0 0 0 0 0 0 0.08 0"/>
<feBlend mode="normal" in2="BackgroundImageFix" result="effect1_dropShadow_298_2564"/>
<feBlend mode="normal" in="SourceGraphic" in2="effect1_dropShadow_298_2564" result="shape"/>
</filter>
</defs>
</svg>
