<svg width="52" height="52" viewBox="0 0 52 52" fill="none" xmlns="http://www.w3.org/2000/svg">
<g filter="url(#filter0_d_298_2614)">
<rect x="4" y="2" width="44" height="44" rx="22" fill="white"/>
<path fill-rule="evenodd" clip-rule="evenodd" d="M25.1662 15.0996H25.2016H26.8016H26.837H26.837C27.3669 15.0996 27.818 15.0996 28.1885 15.1298C28.5776 15.1616 28.9562 15.2313 29.3181 15.4157C29.8638 15.6937 30.3075 16.1374 30.5855 16.683C30.7699 17.045 30.8395 17.4236 30.8713 17.8127C30.9004 18.168 30.9015 18.5976 30.9016 19.0996H31.8016L31.837 19.0996C32.3668 19.0996 32.818 19.0996 33.1884 19.1298C33.5776 19.1616 33.9562 19.2313 34.3181 19.4157C34.8638 19.6937 35.3075 20.1374 35.5855 20.683C35.7699 21.045 35.8395 21.4236 35.8713 21.8127C35.9016 22.1831 35.9016 22.6343 35.9016 23.1642V23.1642V23.1642V23.1996V24.5996V24.6329C35.9016 25.0245 35.9016 25.3709 35.8781 25.6581C35.8532 25.9639 35.7971 26.2807 35.64 26.5892C35.4099 27.0408 35.0427 27.4079 34.5911 27.638C34.3633 27.7541 34.1308 27.815 33.9016 27.849V28.3996V28.4358C33.9016 29.035 33.9016 29.5386 33.8679 29.9507C33.8327 30.3815 33.7563 30.791 33.5582 31.1797C33.2562 31.7724 32.7743 32.2543 32.1816 32.5563C31.793 32.7543 31.3835 32.8308 30.9526 32.866C30.5406 32.8996 30.037 32.8996 29.4378 32.8996H29.4377L29.4016 32.8996H22.6016L22.5654 32.8996H22.5653C21.9661 32.8996 21.4625 32.8996 21.0505 32.866C20.6196 32.8308 20.2102 32.7543 19.8215 32.5563C19.2288 32.2543 18.7469 31.7724 18.4449 31.1797C18.2469 30.791 18.1704 30.3815 18.1352 29.9507C18.1015 29.5386 18.1016 29.035 18.1016 28.4358L18.1016 28.3996V27.849C17.8724 27.815 17.6399 27.7541 17.412 27.638C16.9604 27.4079 16.5932 27.0408 16.3631 26.5892C16.206 26.2807 16.15 25.9639 16.125 25.6581C16.1015 25.371 16.1015 25.0245 16.1016 24.633V24.6329L16.1016 24.5996V23.1996L16.1016 23.1642V23.1641C16.1016 22.6343 16.1015 22.1831 16.1318 21.8127C16.1636 21.4236 16.2332 21.045 16.4176 20.683C16.6957 20.1374 17.1393 19.6937 17.685 19.4157C18.0469 19.2313 18.4255 19.1616 18.8147 19.1298C19.1851 19.0996 19.6363 19.0996 20.1662 19.0996L20.2016 19.0996H21.1016C21.1016 18.5976 21.1028 18.168 21.1318 17.8127C21.1636 17.4236 21.2332 17.045 21.4176 16.683C21.6957 16.1374 22.1393 15.6937 22.685 15.4157C23.0469 15.2313 23.4255 15.1616 23.8147 15.1298C24.1851 15.0996 24.6363 15.0996 25.1661 15.0996H25.1662ZM19.4016 26.0996H32.6016C33.0365 26.0996 33.3085 26.0989 33.5135 26.0822C33.7079 26.0663 33.7615 26.0405 33.774 26.0342C33.8869 25.9767 33.9786 25.8849 34.0362 25.772C34.0425 25.7596 34.0682 25.706 34.0841 25.5115C34.1009 25.3065 34.1016 25.0345 34.1016 24.5996V23.1996C34.1016 22.6247 34.1009 22.2477 34.0773 21.9593C34.0546 21.6815 34.0152 21.5661 33.9817 21.5002C33.8762 21.2932 33.7079 21.125 33.501 21.0195C33.4351 20.9859 33.3197 20.9466 33.0419 20.9239C32.7535 20.9003 32.3765 20.8996 31.8016 20.8996H30.9016V20.8996H30.0016H22.0016H21.1016V20.8996H20.2016C19.6267 20.8996 19.2496 20.9003 18.9613 20.9239C18.6834 20.9466 18.5681 20.9859 18.5022 21.0195C18.2952 21.125 18.1269 21.2932 18.0215 21.5002C17.9879 21.5661 17.9485 21.6815 17.9258 21.9593C17.9023 22.2477 17.9016 22.6247 17.9016 23.1996V24.5996C17.9016 25.0345 17.9023 25.3065 17.919 25.5115C17.9349 25.706 17.9606 25.7596 17.967 25.772C18.0245 25.8849 18.1163 25.9767 18.2292 26.0342C18.2416 26.0405 18.2952 26.0663 18.4897 26.0822C18.6946 26.0989 18.9667 26.0996 19.4016 26.0996ZM19.9016 27.8996V28.3996C19.9016 29.0445 19.9023 29.4741 19.9292 29.8041C19.9553 30.1237 20.0015 30.2699 20.0487 30.3625C20.1781 30.6165 20.3847 30.823 20.6387 30.9525C20.7313 30.9997 20.8775 31.0458 21.1971 31.0719C21.5271 31.0989 21.9567 31.0996 22.6016 31.0996H29.4016C30.0465 31.0996 30.476 31.0989 30.8061 31.0719C31.1256 31.0458 31.2718 30.9997 31.3645 30.9525C31.6185 30.823 31.825 30.6165 31.9544 30.3625C32.0016 30.2699 32.0478 30.1237 32.0739 29.8041C32.1009 29.4741 32.1016 29.0445 32.1016 28.3996V27.8996H19.9016ZM29.0773 17.9593C29.0995 18.2306 29.1014 18.5804 29.1016 19.0996H22.9016C22.9017 18.5804 22.9037 18.2306 22.9258 17.9593C22.9485 17.6815 22.9879 17.5661 23.0215 17.5002C23.1269 17.2932 23.2952 17.125 23.5022 17.0195C23.5681 16.9859 23.6834 16.9466 23.9613 16.9239C24.2496 16.9003 24.6267 16.8996 25.2016 16.8996H26.8016C27.3765 16.8996 27.7535 16.9003 28.0419 16.9239C28.3197 16.9466 28.4351 16.9859 28.501 17.0195C28.7079 17.125 28.8762 17.2932 28.9817 17.5002C29.0152 17.5661 29.0546 17.6815 29.0773 17.9593Z" fill="#FFBA00"/>
</g>
<defs>
<filter id="filter0_d_298_2614" x="0" y="0" width="52" height="52" filterUnits="userSpaceOnUse" color-interpolation-filters="sRGB">
<feFlood flood-opacity="0" result="BackgroundImageFix"/>
<feColorMatrix in="SourceAlpha" type="matrix" values="0 0 0 0 0 0 0 0 0 0 0 0 0 0 0 0 0 0 127 0" result="hardAlpha"/>
<feOffset dy="2"/>
<feGaussianBlur stdDeviation="2"/>
<feColorMatrix type="matrix" values="0 0 0 0 0 0 0 0 0 0 0 0 0 0 0 0 0 0 0.08 0"/>
<feBlend mode="normal" in2="BackgroundImageFix" result="effect1_dropShadow_298_2614"/>
<feBlend mode="normal" in="SourceGraphic" in2="effect1_dropShadow_298_2614" result="shape"/>
</filter>
</defs>
</svg>
