<svg width="52" height="52" viewBox="0 0 52 52" fill="none" xmlns="http://www.w3.org/2000/svg">
<g filter="url(#filter0_d_298_2610)">
<rect x="4" y="2" width="44" height="44" rx="22" fill="white"/>
<path d="M21.2516 27.7496H22.2516C22.6658 27.7496 23.0016 28.0854 23.0016 28.4996V29.4996C23.0016 29.9138 22.6658 30.2496 22.2516 30.2496H21.2516C20.8373 30.2496 20.5016 29.9138 20.5016 29.4996V28.4996C20.5016 28.0854 20.8373 27.7496 21.2516 27.7496Z" fill="#FFBA00"/>
<path d="M29.7516 27.7496H30.7516C31.1658 27.7496 31.5016 28.0854 31.5016 28.4996V29.4996C31.5016 29.9138 31.1658 30.2496 30.7516 30.2496H29.7516C29.3373 30.2496 29.0016 29.9138 29.0016 29.4996V28.4996C29.0016 28.0854 29.3373 27.7496 29.7516 27.7496Z" fill="#FFBA00"/>
<path d="M21.2516 22.7496H22.2516C22.6658 22.7496 23.0016 23.0854 23.0016 23.4996V24.4996C23.0016 24.9138 22.6658 25.2496 22.2516 25.2496H21.2516C20.8373 25.2496 20.5016 24.9138 20.5016 24.4996V23.4996C20.5016 23.0854 20.8373 22.7496 21.2516 22.7496Z" fill="#FFBA00"/>
<path d="M29.7516 22.7496H30.7516C31.1658 22.7496 31.5016 23.0854 31.5016 23.4996V24.4996C31.5016 24.9138 31.1658 25.2496 30.7516 25.2496H29.7516C29.3373 25.2496 29.0016 24.9138 29.0016 24.4996V23.4996C29.0016 23.0854 29.3373 22.7496 29.7516 22.7496Z" fill="#FFBA00"/>
<path d="M21.2516 17.7496H22.2516C22.6658 17.7496 23.0016 18.0854 23.0016 18.4996V19.4996C23.0016 19.9138 22.6658 20.2496 22.2516 20.2496H21.2516C20.8373 20.2496 20.5016 19.9138 20.5016 19.4996V18.4996C20.5016 18.0854 20.8373 17.7496 21.2516 17.7496Z" fill="#FFBA00"/>
<path d="M29.7516 17.7496H30.7516C31.1658 17.7496 31.5016 18.0854 31.5016 18.4996V19.4996C31.5016 19.9138 31.1658 20.2496 30.7516 20.2496H29.7516C29.3373 20.2496 29.0016 19.9138 29.0016 19.4996V18.4996C29.0016 18.0854 29.3373 17.7496 29.7516 17.7496Z" fill="#FFBA00"/>
<path fill-rule="evenodd" clip-rule="evenodd" d="M23.4629 14.0996H28.5403C29.5575 14.0996 30.3757 14.0996 31.0378 14.1537C31.7188 14.2093 32.3135 14.3266 32.8626 14.6064C33.7376 15.0522 34.4489 15.7636 34.8947 16.6386C35.1745 17.1877 35.2918 17.7824 35.3475 18.4633C35.4016 19.1254 35.4016 19.9436 35.4016 20.9609V27.0383C35.4016 28.0556 35.4016 28.8738 35.3475 29.5359C35.2918 30.2169 35.1745 30.8116 34.8947 31.3607C34.4489 32.2356 33.7376 32.947 32.8626 33.3928C32.3135 33.6726 31.7188 33.7899 31.0378 33.8455C30.3757 33.8996 29.5575 33.8996 28.5403 33.8996H23.4629C22.4456 33.8996 21.6274 33.8996 20.9653 33.8455C20.2843 33.7899 19.6896 33.6726 19.1405 33.3928C18.2656 32.947 17.5542 32.2356 17.1084 31.3607C16.8286 30.8116 16.7113 30.2169 16.6556 29.5359C16.6015 28.8738 16.6016 28.0556 16.6016 27.0383V20.9609C16.6016 19.9436 16.6015 19.1254 16.6556 18.4633C16.7113 17.7824 16.8286 17.1877 17.1084 16.6386C17.5542 15.7636 18.2656 15.0522 19.1405 14.6064C19.6896 14.3266 20.2843 14.2093 20.9653 14.1537C21.6274 14.0996 22.4456 14.0996 23.4629 14.0996ZM21.1119 15.9477C20.5422 15.9943 20.2108 16.0813 19.9577 16.2102C19.4214 16.4835 18.9854 16.9195 18.7122 17.4557C18.5833 17.7088 18.4962 18.0402 18.4497 18.6099C18.4023 19.1901 18.4016 19.9347 18.4016 20.9996V26.9996C18.4016 28.0646 18.4023 28.8091 18.4497 29.3893C18.4962 29.959 18.5833 30.2904 18.7122 30.5435C18.9854 31.0797 19.4214 31.5157 19.9577 31.789C20.2108 31.9179 20.5422 32.005 21.1119 32.0515C21.692 32.0989 22.4366 32.0996 23.5016 32.0996H28.5016C29.5665 32.0996 30.3111 32.0989 30.8913 32.0515C31.4609 32.005 31.7924 31.9179 32.0454 31.789C32.5817 31.5157 33.0177 31.0797 33.2909 30.5435C33.4199 30.2904 33.5069 29.959 33.5535 29.3893C33.6009 28.8091 33.6016 28.0646 33.6016 26.9996V20.9996C33.6016 19.9347 33.6009 19.1901 33.5535 18.6099C33.5069 18.0402 33.4199 17.7088 33.2909 17.4557C33.0177 16.9195 32.5817 16.4835 32.0454 16.2102C31.7924 16.0813 31.4609 15.9943 30.8913 15.9477C30.3111 15.9003 29.5665 15.8996 28.5016 15.8996H23.5016C22.4366 15.8996 21.692 15.9003 21.1119 15.9477Z" fill="#FFBA00"/>
</g>
<defs>
<filter id="filter0_d_298_2610" x="0" y="0" width="52" height="52" filterUnits="userSpaceOnUse" color-interpolation-filters="sRGB">
<feFlood flood-opacity="0" result="BackgroundImageFix"/>
<feColorMatrix in="SourceAlpha" type="matrix" values="0 0 0 0 0 0 0 0 0 0 0 0 0 0 0 0 0 0 127 0" result="hardAlpha"/>
<feOffset dy="2"/>
<feGaussianBlur stdDeviation="2"/>
<feColorMatrix type="matrix" values="0 0 0 0 0 0 0 0 0 0 0 0 0 0 0 0 0 0 0.08 0"/>
<feBlend mode="normal" in2="BackgroundImageFix" result="effect1_dropShadow_298_2610"/>
<feBlend mode="normal" in="SourceGraphic" in2="effect1_dropShadow_298_2610" result="shape"/>
</filter>
</defs>
</svg>
